<?xml version="1.0" standalone="no"?>
<!DOCTYPE svg PUBLIC "-//W3C//DTD SVG 20010904//EN"
 "http://www.w3.org/TR/2001/REC-SVG-20010904/DTD/svg10.dtd">
<svg version="1.0" xmlns="http://www.w3.org/2000/svg"
 width="488.000000pt" height="488.000000pt" viewBox="0 0 488.000000 488.000000"
 preserveAspectRatio="xMidYMid meet">
<metadata>
Created by potrace 1.14, written by Peter Selinger 2001-2017
</metadata>
<g transform="translate(0.000000,488.000000) scale(0.100000,-0.100000)"
fill="#000000" stroke="none">
<path d="M2840 4414 c-44 -15 -111 -51 -157 -86 l-52 -40 -53 30 c-75 43 -153
64 -208 56 -63 -8 -215 -84 -273 -134 -57 -50 -77 -86 -77 -137 0 -21 -3 -61
-6 -90 -7 -51 -7 -52 -48 -59 -64 -10 -144 -43 -179 -73 -18 -15 -62 -44 -98
-64 -68 -38 -141 -107 -161 -155 -7 -15 -44 -74 -83 -132 -120 -176 -140 -219
-171 -355 -54 -248 -54 -247 -54 -506 0 -208 -2 -251 -14 -255 -11 -4 -14 -17
-9 -52 4 -37 -3 -73 -35 -172 -22 -69 -43 -137 -46 -152 l-6 -28 142 0 c197 0
189 -3 182 79 -5 54 -1 82 20 156 15 50 33 151 41 225 35 322 54 399 127 525
70 119 229 258 373 327 50 23 52 23 310 18 l260 -5 85 -39 c147 -68 292 -192
375 -321 67 -104 126 -207 122 -212 -2 -2 -24 1 -48 6 -123 29 -409 -13 -409
-60 0 -20 33 -21 128 -5 127 21 273 21 317 0 41 -19 83 -58 118 -109 15 -22
48 -67 73 -100 45 -60 82 -123 90 -154 2 -9 8 -33 13 -53 6 -25 5 -36 -1 -32
-7 4 -8 -6 -3 -27 5 -26 4 -31 -5 -19 -9 12 -10 11 -5 -8 4 -12 2 -37 -4 -55
-10 -32 -21 -78 -24 -107 -1 -10 8 -16 29 -18 33 -3 41 9 45 68 1 14 5 3 8
-25 l6 -50 171 -5 c183 -5 192 -8 219 -61 12 -23 13 -56 5 -201 -11 -194 -22
-389 -45 -843 -14 -280 -14 -319 0 -405 8 -52 15 -99 15 -104 0 -5 33 -6 73
-3 92 7 180 46 260 118 102 90 191 246 164 284 -12 15 -17 16 -74 1 -69 -18
-213 -33 -213 -22 0 4 11 24 25 44 31 46 59 135 56 182 -1 19 -3 36 -5 38 -7
6 -71 -25 -135 -67 -78 -50 -107 -53 -116 -11 -11 48 -8 109 9 190 9 41 16 78
16 82 0 4 26 38 58 75 233 275 313 445 298 633 -9 114 -40 209 -131 400 -70
149 -91 197 -100 230 -1 3 -5 12 -8 20 -4 8 -16 51 -28 95 -18 66 -23 125 -29
340 -9 272 -16 320 -63 427 -31 71 -90 163 -131 208 -25 26 -35 50 -44 97 -13
75 -61 187 -115 267 -41 62 -218 246 -236 246 -5 0 -40 18 -78 40 -39 22 -117
56 -176 75 -86 29 -120 35 -184 34 -43 0 -85 -3 -93 -5z"/>
<path d="M1726 2770 c-40 -13 -106 -60 -106 -76 0 -18 0 -18 51 6 57 25 190
27 335 3 81 -13 107 -14 116 -5 19 19 -8 37 -82 56 -76 20 -272 30 -314 16z"/>
<path d="M1675 2498 c6 -17 4 -20 -9 -15 -9 4 -23 10 -32 14 -13 5 -15 2 -9
-17 6 -20 5 -22 -24 -15 -35 8 -39 0 -13 -28 17 -19 16 -19 -20 -15 -38 4 -52
-7 -23 -18 22 -9 18 -21 -7 -28 -19 -5 -21 -8 -8 -16 8 -5 24 -10 35 -10 12 0
26 -5 33 -12 9 -9 17 -5 33 16 26 33 97 86 114 86 10 0 9 -10 -2 -42 -23 -68
4 -160 53 -178 14 -6 50 -10 80 -10 44 0 62 5 95 30 44 32 64 31 53 -2 -10
-33 14 -12 36 32 11 22 20 54 20 72 l0 32 40 -39 c22 -21 43 -47 46 -57 8 -26
24 -12 24 22 0 38 -112 141 -199 183 -62 29 -65 30 -171 23 -70 -4 -111 -3
-115 4 -3 5 -13 10 -21 10 -11 0 -13 -6 -9 -22z m189 -54 c31 -30 8 -69 -36
-62 -30 4 -38 46 -12 65 23 17 29 16 48 -3z"/>
<path d="M3116 2513 c-4 -5 -60 -8 -124 -8 -106 0 -122 -3 -172 -26 -60 -29
-174 -131 -184 -166 -4 -13 -3 -30 2 -39 9 -16 10 -15 16 2 3 11 24 38 46 59
l40 39 0 -32 c0 -40 21 -90 50 -121 21 -21 29 -23 81 -18 44 4 69 13 103 37
43 31 73 33 62 4 -11 -30 13 -12 28 20 25 52 29 90 16 131 -7 20 -10 39 -7 42
9 9 73 -35 107 -73 21 -25 35 -33 43 -26 7 5 30 13 52 17 l40 8 -27 10 c-31
12 -35 22 -13 31 29 11 15 22 -22 18 -37 -4 -38 -4 -20 15 25 28 21 36 -13 28
-32 -7 -38 2 -17 24 10 11 8 13 -8 8 -11 -2 -28 -8 -39 -12 -15 -7 -17 -5 -11
13 6 22 -12 31 -29 15z m-238 -100 c-3 -31 -38 -43 -64 -23 -20 17 -18 29 9
40 43 17 59 12 55 -17z"/>
<path d="M1604 2106 c-7 -31 2 -47 22 -39 9 3 14 15 12 31 -4 34 -26 40 -34 8z"/>
<path d="M1020 302 c0 -10 11 -29 24 -42 l25 -22 1331 -6 1331 -5 24 23 c30
28 34 63 8 53 -10 -3 -26 -13 -35 -20 -14 -13 -195 -14 -1318 -9 -1284 6
-1302 6 -1335 26 -40 25 -55 25 -55 2z"/>
</g>
</svg>
